<svg height="32" viewBox="0 0 32 32" width="32" xmlns="http://www.w3.org/2000/svg" xmlns:xlink="http://www.w3.org/1999/xlink"><mask id="a" fill="#fff"><path d="m.00010833.92708985h31.99999997v28.00000005h-31.99999997z" fill="#fff" fill-rule="evenodd"/></mask><mask id="b" fill="#fff"><path d="m.17181667.97326982h32.00000003v15.99999998h-32.00000003z" fill="#fff" fill-rule="evenodd"/></mask><g fill-rule="evenodd"><g transform="translate(0 1.702167)"><path d="m24.8227186 26.1819428c-.1064887-.1099109-.1064887-.1099109-.2117739-.2192168-.0233331-.0242324-.0233331-.0242324-.0466229-.0484201-.2412968-.2505862-.3648745-.377337-.5089089-.5201813-.3785863-.3762246-.6943012-.6909736-1.3533572-1.3487503-.0281579-.0281033-.0281579-.0281033-.056315-.0562058-1.8745942-1.8709551-2.7354706-2.722972-3.8044502-3.755113-.9719105-.9371995-2.1433113-1.2972227-3.5101049-1.0836307-.8806047.1381525-1.6391048.5395285-2.3119516 1.2093534-.9560287.9505843-1.7527478 1.7405156-3.4288592 3.400696-.07146463.0707854-.07146463.0707854-.14292863.1415701-1.02560863 1.0158612-1.5425414 1.5280938-2.14569076 2.1264227-.00446237.0043654-.01400311.0160004-.04185045.0525796-.02309601.0303831-.02309601.0303831-.05441273.0695432l-.15002737.1829602h-5.26790353l.86016297-.8547189-.00004519.0000449c.39717233-.3946586.81267134-.807298 1.28405455-1.2752513.35528791-.3527028.64219247-.6374525 1.28444193-1.274829.3254447-.3235434.66744349-.6637175 1.33515505-1.3279102.85782087-.8532116 1.42516441-1.4168961 2.00534237-1.9919996.13934204-.1380753.25568894-.2538292.49871048-.4959538.00972536-.0096895.00972536-.0096895.01945169-.0193799.80778045-.8047993 1.17810862-1.1686047 1.64551672-1.6090469.8375689-.7897078 1.833233-1.3550499 2.976086-1.704517.8366738-.2568841 1.6620348-.3770261 2.4790573-.3488917 1.8736875.0645687 3.5026592.6636906 4.8390798 1.8316548.4567859.3992545.807418.7396104 1.5608362 1.4972098.0102138.0102706.0102138.0102706.0204246.020538.236589.2379016.3506552.3521468.486501.4866846.9313388.9205023 1.6753646 1.6577861 3.3485975 3.3172951.8364626.8296019 1.2082525 1.1982624 1.6733382 1.659134.2308347.2290313.415585.411857.8313774.8229573.208026.2056785.208026.2056785.4161559.4115802l.8644038.8553996h-5.2462154z" mask="url(#a)" stroke="#fff"/><path d="m25.1813583 25.83355c-.2578333-.2654167-.5113333-.5340833-.7735-.7940833-1.7365833-1.72575-3.4590833-3.4655834-5.2195-5.1653334-1.092-1.053-2.4234166-1.4538333-3.9346666-1.2176666-1.0150834.15925-1.8633334.6283333-2.587 1.34875-1.9023334 1.8915-3.81008337 3.7765-5.71458337 5.6658333-.04983333.04875-.08883333.1083333-.13325.1625h-3.81875c.85583334-.8504167 1.71166667-1.69975 2.56858334-2.5501667 1.11258333-1.1060833 2.22516666-2.2143333 3.33991666-3.3193333.715-.7085 1.42241667-1.4256667 2.15474997-2.11575.79625-.75075 1.7311667-1.2696667 2.7798334-1.5903333.7550833-.2318334 1.5285833-.35425 2.3150833-.3271667 1.6975833.0585 3.2380833.58175 4.52725 1.7084167.7139167.624 1.3704167 1.3151666 2.0453333 1.9835833 1.6759167 1.6564167 3.3475 3.3171667 5.02125 4.97575.416.41275.832.8233333 1.248 1.235z" mask="url(#a)"/></g><g transform="translate(0 2.868833)"><path d="m7.30341248 2.86348367c.13019714.1321529.23605239.24007548.46622025.47509308.00363111.00370762.00363111.00370762.00726205.00741506.51536694.52622603.74770308.76171243 1.03826656 1.04980853.17916423.17794919.17916423.17794919.35832101.3558929 1.88187665 1.869105 2.83661935 2.81370845 3.94840435 3.90212276.7015359.68598936 1.5346576 1.06703695 2.5103482 1.14609502 1.3199926.10594302 2.4318944-.32560178 3.4076528-1.30336373 1.0050632-1.00625193 1.8679542-1.86237223 3.6001946-3.57539403.1201671-.11883283.1201671-.11883283.240326-.23765758.7789095-.77026759 1.2063419-1.19329963 1.6792716-1.66232407.0124163-.01241628.0263856-.02841088.0590558-.06764986.0020479-.00245983.0020479-.00245983.0041372-.00496934.0243448-.02923779.0243448-.02923779.0542976-.06395569l.1493636-.17020505h5.1086898l-.7316444.83051527c-.0280303.03181814-.0496589.05694327-.1019413.11815733-.0027947.0032735-.0027947.0032735-.0055982.00655724-.1280328.14996489-.1905024.22023935-.2768831.30661743-1.3964635 1.38888576-2.7941411 2.77681597-4.1952957 4.16604114-.2497068.2474729-.4560902.45323941-.8937934.89054276-.0138566.01384395-.0138566.01384395-.0277141.02768883-1.1619865 1.16092523-1.694582 1.68581863-2.365924 2.32127733-1.1332768 1.0730824-2.4931667 1.7398953-4.0463807 1.9854444-1.5284567.2421318-2.9943375.0704911-4.3967377-.5243279-.9802712-.416033-1.8377097-1.0491179-2.7499264-1.9639225-1.23653195-1.23918266-2.30990366-2.30504027-4.42666198-4.39992236-.1897805-.18781669-.1897805-.18781669-.37956532-.37563837-.55954-.55376047-.91540857-.90609296-1.28506085-1.27239656-.13165614-.13091441-.25736145-.25536253-.46152244-.45709494-.05790401-.05721201-.05790401-.05721201-.11585131-.11446578-.26432577-.26117462-.4157143-.41115501-.58062639-.57560327-.06113899-.06113899-.08849022-.10292928-.13493769-.1850331-.00011521-.00020365-.00011521-.00020365-.00022947-.00040562-.00876079-.01535956-.00876079-.01535956-.00846091-.01483669l-.49142991-.76919464h4.89748827z" mask="url(#b)" stroke="#fff"/><path d="m6.94723333 3.21439167c.50483334.51241666 1.00533334 1.03025 1.51558334 1.53616666 1.43325 1.4235 2.86650003 2.84808334 4.30950003 4.26075.7821666.76483334 1.7235833 1.19816667 2.8199166 1.28699997 1.49825.12025 2.74625-.3910833 3.8014167-1.44841663 1.8319167-1.83408334 3.6800833-3.65083334 5.5195833-5.47516667.0498334-.04983333.0931667-.10725.13975-.16033333h3.7754167c-.12025.1365-.234.2795-.3618333.40733333-1.3975 1.38991667-2.795 2.77766667-4.1946667 4.16541667-1.0898333 1.08008333-2.1645 2.17641666-3.27925 3.23158333-1.0605833 1.00425-2.3280833 1.625-3.7808333 1.8546667-1.4224167.2253333-2.795.0725833-4.1231667-.49075-1.0031667-.42575-1.8275833-1.0909167-2.5913333-1.8568334-2.02150003-2.0258333-4.06033337-4.03541663-6.0926667-6.0493333-.38458333-.38241667-.77241667-.76266667-1.157-1.14616667-.03141667-.03141666-.05091667-.07691666-.07583333-.11591666z" mask="url(#b)"/></g></g></svg>