<svg height="80" viewBox="0 0 80 80" width="80" xmlns="http://www.w3.org/2000/svg"><g fill="none" fill-rule="evenodd"><path d="m0 0h80v80h-80z"/><g transform="translate(2 13)"><g fill="#f9a229"><path d="m5.42857143 27c0-11.2617 5.81399997-21.1923 14.60557147-27h-20.0341429v54h20.0341429c-8.7915715-5.8077-14.60557147-15.7356-14.60557147-27"/><path d="m76 0h-20.0341429c8.7915715 5.8077 14.6055715 15.7383 14.6055715 27 0 11.2644-5.814 21.1923-14.6055715 27h20.0341429z"/><path d="m10.8571429 27c0 14.9094 12.1545714 27 27.1428571 27s27.1428571-12.0906 27.1428571-27c0-14.9121-12.1545714-27-27.1428571-27s-27.1428571 12.0879-27.1428571 27"/></g><path d="m44.5894714 33.53373c-.6812857.5454-2.1252857 1.1799-3.5692857 1.5417-1.4494286.3645-3.6452857.702-3.6452857.702l-1.2485714-7.0362s2.0764285-.4752 3.7321428-.6561c1.6502857-.1782 3.097-.0054 3.7701429.1944.6704286.1971 1.8674286.6831 2.1524286 2.2923.2877142 1.6119-.5102858 2.4138-1.1915715 2.9619m-9.0412857-8.0595-1.1237143-6.3342s1.0341429-.2754 2.0682857-.4401c1.0368572-.1674 1.9515715-.297 3.382-.1188 1.4277143.1755 2.4075715 1.0476 2.6518572 2.2383.2415714 1.1907-.1411429 2.079-.9744286 2.7486-.836.6669-2.0655714 1.1664-3.2598571 1.4229-1.1942857.2592-2.7441429.4833-2.7441429.4833m13.8971429-.4131c-1.2757143-.6453-2.9368572-.702-2.9368572-.702s1.216-1.0206 1.634-1.9008c.4152857-.8802.4777143-2.1384.4125715-2.7756-.0651429-.6372-.4234286-3.294-2.7604286-4.4496-1.805-.8937-3.7185714-1.0395-6.2048572-.7587l-.9418571-5.3244-3.3005714.5805.931 5.2596-2.5107143.4401-.9337143-5.2596-3.2978571.5778.9337142 5.2596-6.4898571 1.1394.6025714 3.4074 1.9081429-.3348c.5184286-.0918 1.4548571-.1971 1.9271428.1728.4695715.3672.5781429.5859.7301429 1.4364l2.4075714 13.5783c.057.3213.0651429.7317-.1655714 1.0422-.2307143.3078-.4967143.4158-1.1617143.5346l-1.9732857.3456.0217143 4.0608 6.4898571-1.1394.931 5.2461 3.2978572-.5778-.931-5.2461 2.5134285-.4428.9282858 5.2488 3.3005714-.5805-.9472857-5.3325c.8468571-.1971 1.6285714-.3996 2.0818571-.5427.9201429-.2862 3.002-.9072 4.7472857-2.6352s1.8077143-3.969 1.4684286-6.156c-.3392857-2.1843-1.4358571-3.5262-2.7115714-4.1715" fill="#fff"/></g></g></svg>