<svg height="80" viewBox="0 0 80 80" width="80" xmlns="http://www.w3.org/2000/svg"><g fill="none" fill-rule="evenodd"><path d="m0 0h80v80h-80z"/><g fill-rule="nonzero" transform="translate(2 2)"><circle cx="38" cy="38" fill="#4f4f4f" r="38"/><path d="m38 71.82c-18.6782702 0-33.82-15.1417298-33.82-33.82s15.1417298-33.82 33.82-33.82 33.82 15.1417298 33.82 33.82c-.0220415 18.6691327-15.1508673 33.7979585-33.82 33.82z" fill="#fff"/><g fill="#d7d8d9"><path d="m12.49 47.28c.3339783.9267509.7178732 1.8347457 1.15 2.72l50.72-18.48c-.4647423-1.8973751-1.1353878-3.738297-2-5.49l-50.72 18.45c.2330735.9478578.5168144 1.8825334.85 2.8z"/><path d="m10.86 38.1 48-17.47c-1.4029851-1.6807307-3.0046855-3.1850531-4.77-4.48l-42.46 15.45c-.518633 2.1275462-.7771893 4.3101641-.77 6.5z"/><path d="m14.93 23.73 31.57-11.49c-11.9145836-3.95722619-24.9862323.8002411-31.57 11.49z"/><path d="m21.92 59.85 42.45-15.45c.5220016-2.127133.7839165-4.3097568.78-6.5l-48 17.47c1.4029851 1.6807307 3.0046855 3.1850531 4.77 4.48z"/><path d="m47.28 63.51c5.7344683-2.0812034 10.5951279-6.0430463 13.79-11.24l-31.57 11.49c5.7848835 1.9266433 12.0515728 1.838529 17.78-.25z"/></g><path d="m47.37 16.29h-2.7-12.11-1.61l-.41 1.55-4.61 17.62-2.21.78-1.02.36-.29 1.03-1.67 5.85-1.11 3.9 3.5-1.25-1.78 6.79-.68 2.62h2.7 6.61 5.5 17.75 1.6l.41-1.55 2.09-7.72.71-2.63h-2.72-15.11l1.03-3.92 2.25-.8 1.01-.36.3-1.03 1.67-5.85 1.11-3.89-3.55 1.26 2.66-10.15z" fill="#5e5e5e"/><path d="m44.67 18.37-3.66 13.96 3.45-1.22-1.67 5.85-3.29 1.16-1.99 7.61h17.81l-2.09 7.72h-17.75-5.5-6.61l2.78-10.6-3.4 1.2 1.67-5.84 3.25-1.15 4.89-18.69z" fill="#fff"/></g></g></svg>