<svg height="80" viewBox="0 0 80 80" width="80" xmlns="http://www.w3.org/2000/svg" xmlns:xlink="http://www.w3.org/1999/xlink"><linearGradient id="a" x1="0%" x2="100%" y1="0%" y2="100%"><stop offset="0" stop-color="#fbb24e"/><stop offset="1" stop-color="#faa831"/></linearGradient><g fill="none" fill-rule="evenodd"><path d="m0 0h80v80h-80z"/><g transform="translate(2 2)"><path d="m38.0003351 0c-20.986915 0-38.0003351 17.012935-38.0003351 38 0 20.9867299 17.0134201 38 38.0003351 38 20.9869149 0 37.9996649-17.0132701 37.9996649-38 0-20.987065-17.01275-38-37.9996649-38z" fill="url(#a)" fill-rule="nonzero"/><path d="m44.6572965 51.8253456c-1.2462366.4261137-3.6190477.5807988-5.8517665.3560676-2.2356375-.2276498-5.5190477-.8784946-5.5190477-.8784946l1.8795699-10.6499232s3.1841782.3940092 5.615361.9894009 4.386636 1.5877112 5.2330261 2.2152074c.8463902.6274961 2.2910907 1.935023 1.8620584 4.372043s-1.9729647 3.1695853-3.2192012 3.5956989m-8.6215054-16.1164362 1.6898617-9.584639s1.6052228.1400921 3.1549924.437788c1.5526881.2947772 2.9127496.5837173 4.844854 1.5701997 1.9291859.9864823 2.8660523 2.7317972 2.5946237 4.5500768-.2743472 1.8182795-1.2754224 2.8864823-2.8047619 3.4059908-1.5264209.5195084-3.5256529.5983102-5.346851.3502304-1.8241168-.2509985-4.1298003-.7296467-4.1327189-.7296467m19.875576 6.5668202c-1.4680491-1.5760368-3.7912442-2.5099846-3.7912442-2.5099846s2.2502304-.8259601 3.2950845-1.8620584c1.0419355-1.0360983 1.7832565-2.7960061 2.019662-3.7328725.2393241-.9397849 1.1061444-4.9032258-1.5993855-7.7488479-2.0926268-2.2006144-4.725192-3.3913978-8.3850999-4.2757296l1.4184332-8.0552996-4.9645161-.875576-1.4038403 7.9619047-3.7824884-.6683563 1.4038402-7.9619048-4.9674347-.8726574-1.4038403 7.9589861-9.76851-1.7219662-.910599 5.1542243 2.8718894.5078341c.7821812.1371736 2.1597542.4698925 2.6354838 1.2374808.4757297.7646697.5165899 1.1324117.2918587 2.4195084l-3.6248848 20.5497696c-.084639.487404-.2860215 1.07404-.7734255 1.3950845-.4844854.3210446-.9164362.3385561-1.9175115.1634409l-2.9682028-.5224271-2.0751152 5.7846391 9.7714286 1.7219662-1.4009217 7.9356374 4.9674348.8784947 1.4009216-7.9385561 3.7795699.6654378-1.3980031 7.9385561 4.9674348.875576 1.4213517-8.0669739c1.2958526.1488479 2.5099847.2655914 3.2250384.2947773 1.4476191.0671275 4.7164363.2597542 8.0786483-1.3016897 3.3622119-1.561444 4.6113671-4.7135177 5.2622119-7.9998464.6508449-3.2804916-.2072196-5.7525346-1.6752688-7.3285715" fill="#fff"/></g></g></svg>